<svg width="500" height="320" xmlns="http://www.w3.org/2000/svg" version="1.1"><g transform="translate(0, 10)"><g class="links" fill="none" stroke-opacity="0.4"><path d="M5,273.75000000000006C126.25,273.75000000000006,126.25,268.7500000000001,247.5,268.7500000000001" stroke-width="52.50000000000001" style="stroke: rgb(191, 105, 105);"></path><path d="M5,204.2499999999999C126.25,204.2499999999999,126.25,209.2500000000001,247.5,209.2500000000001" stroke-width="66.5" style="stroke: rgb(174, 191, 105);"></path><path d="M5,80.4999999999999C126.25,80.4999999999999,126.25,85.50000000000018,247.5,85.50000000000018" stroke-width="161.00000000000003" style="stroke: rgb(105, 191, 139);"></path><path d="M252.5,268.7500000000001C373.75,268.7500000000001,373.75,268.75,495,268.75" stroke-width="52.50000000000001" style="stroke: rgb(105, 139, 191);"></path><path d="M252.5,209.2500000000001C373.75,209.2500000000001,373.75,199.25000000000003,495,199.25000000000003" stroke-width="66.5" style="stroke: rgb(105, 139, 191);"></path><path d="M252.5,85.50000000000018C373.75,85.50000000000018,373.75,85.50000000000001,495,85.50000000000001" stroke-width="161.00000000000003" style="stroke: rgb(174, 105, 191);"></path></g><g class="nodes" font-family="Arial, Helvetica" font-size="10"><g><rect x="495" y="5" height="227.5" width="5" fill="#000"></rect><text x="489" y="118.75" dy="0.35em" text-anchor="end">&lt; 10 days</text></g><g><rect x="495" y="242.5" height="52.50000000000003" width="5" fill="#000"></rect><text x="489" y="268.75" dy="0.35em" text-anchor="end">&gt; 10 days</text></g><g><rect x="0" y="247.50000000000003" height="52.500000000000085" width="5" fill="#000"></rect><text x="11" y="273.75000000000006" dy="0.35em" text-anchor="start">1500</text></g><g><rect x="0" y="170.9999999999999" height="66.50000000000014" width="5" fill="#000"></rect><text x="11" y="204.24999999999994" dy="0.35em" text-anchor="start">1900</text></g><g><rect x="0" y="-1.1368683772161603e-13" height="161" width="5" fill="#000"></rect><text x="11" y="80.49999999999989" dy="0.35em" text-anchor="start">4600</text></g><g><rect x="247.5" y="5.0000000000001705" height="160.99999999999994" width="5" fill="#000"></rect><text x="241.5" y="85.50000000000014" dy="0.35em" text-anchor="end">&lt; 72 hours</text></g><g><rect x="247.5" y="176.0000000000001" height="118.99999999999974" width="5" fill="#000"></rect><text x="241.5" y="235.5" dy="0.35em" text-anchor="end">&gt; 72 hours</text></g></g></g></svg>