<svg width="500" height="520" xmlns="http://www.w3.org/2000/svg" version="1.1"><g transform="translate(0, 10)"><g class="links" fill="none" stroke-opacity="0.4"><path d="M5,250.00000000000006C126.25,250.00000000000006,126.25,245.00000000000003,247.5,245.00000000000003" stroke-width="160" style="stroke: rgb(191, 105, 105);"></path><path d="M5,79.99999999999994C126.25,79.99999999999994,126.25,85.00000000000003,247.5,85.00000000000003" stroke-width="160" style="stroke: rgb(174, 191, 105);"></path><path d="M5,420.00000000000006C126.25,420.00000000000006,126.25,415,247.5,415" stroke-width="160" style="stroke: rgb(105, 191, 139);"></path><path d="M252.5,85.00000000000003C373.75,85.00000000000003,373.75,80.00000000000003,495,80.00000000000003" stroke-width="160" style="stroke: rgb(105, 139, 191);"></path><path d="M252.5,245.00000000000003C373.75,245.00000000000003,373.75,249.99999999999991,495,249.99999999999991" stroke-width="160" style="stroke: rgb(105, 139, 191);"></path><path d="M252.5,415C373.75,415,373.75,420,495,420" stroke-width="160" style="stroke: rgb(174, 105, 191);"></path></g><g class="nodes" font-family="Arial, Helvetica" font-size="10"><g><rect x="495" y="340" height="160" width="5" fill="#000"></rect><text x="489" y="420" dy="0.35em" text-anchor="end">&lt; 10 days in CBP custody</text></g><g><rect x="495" y="169.99999999999991" height="160.00000000000006" width="5" fill="#000"></rect><text x="489" y="249.99999999999994" dy="0.35em" text-anchor="end">&lt;10 days in CBP custody</text></g><g><rect x="495" y="2.842170943040401e-14" height="159.9999999999999" width="5" fill="#000"></rect><text x="489" y="79.99999999999997" dy="0.35em" text-anchor="end">&gt;10 days in CBP custody</text></g><g><rect x="0" y="170.00000000000006" height="160" width="5" fill="#000"></rect><text x="11" y="250.00000000000006" dy="0.35em" text-anchor="start">1500</text></g><g><rect x="0" y="-5.684341886080802e-14" height="160.0000000000001" width="5" fill="#000"></rect><text x="11" y="80" dy="0.35em" text-anchor="start">1900</text></g><g><rect x="0" y="340.00000000000006" height="160" width="5" fill="#000"></rect><text x="11" y="420.00000000000006" dy="0.35em" text-anchor="start">4600</text></g><g><rect x="247.5" y="335" height="160" width="5" fill="#000"></rect><text x="241.5" y="415" dy="0.35em" text-anchor="end">&lt; 72 hours in CBP custody</text></g><g><rect x="247.5" y="5.000000000000028" height="319.99999999999994" width="5" fill="#000"></rect><text x="241.5" y="165" dy="0.35em" text-anchor="end">&gt; 72 hours in CBP custody</text></g></g></g></svg>