<?xml version="1.0" standalone="no"?>
<!DOCTYPE svg PUBLIC "-//W3C//DTD SVG 20010904//EN"
 "http://www.w3.org/TR/2001/REC-SVG-20010904/DTD/svg10.dtd">
<svg version="1.0" xmlns="http://www.w3.org/2000/svg"
 width="731.000000pt" height="421.000000pt" viewBox="0 0 731.000000 421.000000"
 preserveAspectRatio="xMidYMid meet">

<g transform="translate(0.000000,421.000000) scale(0.100000,-0.100000)"
fill="#000000" stroke="none">
<path d="M0 2105 l0 -2105 3645 0 3645 0 0 2105 0 2105 -3645 0 -3645 0 0
-2105z m6638 2038 c2 -7 7 -13 11 -13 11 0 551 -542 551 -553 0 -4 4 -6 8 -3
4 2 17 -9 27 -25 11 -16 23 -29 28 -29 4 0 7 -87 7 -194 l0 -194 -122 -7 c-68
-3 -1698 -5 -3623 -3 l-3500 3 -3 222 -2 222 290 290 c160 159 296 292 303
294 7 3 1364 5 3016 4 2393 -2 3005 -5 3009 -14z m-5453 -1324 c297 -72 534
-319 591 -617 50 -264 -28 -530 -214 -719 -129 -132 -281 -206 -480 -234 l-83
-11 3 -92 3 -91 327 -3 327 -2 1 -375 c0 -206 -2 -386 -6 -400 l-6 -25 -659 0
-659 0 0 400 0 400 324 0 c286 0 325 2 330 16 3 9 6 51 6 94 l0 78 -57 7
c-103 12 -196 36 -271 71 -319 146 -503 473 -462 821 39 321 255 578 567 673
137 41 271 44 418 9z m1815 0 c105 -26 242 -97 323 -166 282 -242 362 -633
196 -967 -120 -244 -328 -389 -631 -439 l-73 -12 0 -90 0 -90 328 -3 327 -2 0
-400 0 -400 -662 2 -663 3 -3 397 -2 398 327 2 328 3 3 90 3 91 -106 16 c-307
49 -544 244 -648 535 -30 85 -31 93 -32 253 0 146 3 173 23 234 47 141 109
242 204 336 203 201 481 277 758 209z m1740 -1 c252 -63 455 -243 553 -489 38
-98 50 -184 45 -328 -4 -103 -10 -141 -33 -206 -102 -298 -336 -493 -651 -543
l-105 -16 3 -91 3 -90 328 -3 327 -2 0 -400 0 -400 -662 2 -663 3 -3 397 -2
398 327 2 328 3 3 90 3 91 -105 16 c-315 50 -549 246 -651 543 -33 95 -45 273
-26 393 35 228 199 451 411 561 184 96 374 119 570 69z m1740 1 c155 -38 322
-145 428 -272 54 -66 105 -161 139 -259 26 -78 28 -93 28 -243 0 -148 -2 -166
-28 -247 -99 -304 -364 -515 -695 -553 l-63 -7 3 -92 3 -91 328 -3 327 -2 0
-400 0 -400 -665 0 -665 0 0 400 0 400 328 2 327 3 3 90 3 91 -106 16 c-275
44 -486 196 -606 438 -56 114 -70 171 -76 311 -6 138 9 243 49 340 153 374
547 574 938 478z"/>
<path d="M1216 3800 c-13 -17 -37 -52 -52 -79 l-26 -50 -55 2 c-47 2 -58 -1
-74 -22 -26 -32 -24 -57 7 -88 20 -20 31 -24 57 -19 17 3 41 16 53 27 31 29
60 21 57 -16 -4 -54 38 -76 55 -27 7 23 14 27 48 27 37 0 39 2 60 53 12 29 26
58 32 64 22 22 22 1 2 -46 -26 -62 -25 -76 4 -76 19 0 28 11 49 59 26 61 57
96 43 50 -4 -13 -10 -40 -13 -61 -4 -30 -2 -38 16 -48 18 -9 28 -8 55 8 29 17
34 18 42 4 6 -9 25 -15 51 -15 52 0 96 31 125 86 12 23 23 37 25 30 2 -7 0
-21 -6 -32 -28 -52 -1 -98 47 -80 14 5 34 6 46 2 27 -9 47 -5 68 14 11 10 18
11 23 3 15 -24 55 -30 97 -15 35 12 44 12 61 0 14 -10 27 -11 44 -4 14 5 32 5
41 0 9 -4 39 -5 65 -2 47 6 50 8 70 56 27 61 35 75 47 75 5 0 3 -19 -5 -41
-20 -56 -19 -76 5 -89 16 -8 28 -8 50 4 17 8 32 10 36 5 3 -5 24 -9 48 -9 35
0 48 6 74 33 31 32 42 67 22 67 -5 0 -15 -9 -22 -20 -21 -33 -28 -23 -28 40 0
56 -2 60 -23 60 -16 0 -29 -12 -47 -46 -49 -93 -95 -131 -59 -49 11 25 19 56
17 68 -2 18 -9 22 -38 20 -19 -2 -47 -3 -61 -3 -21 0 -30 -9 -49 -50 -23 -49
-60 -94 -60 -72 0 6 9 31 20 57 26 61 25 69 -5 61 -14 -4 -34 -1 -45 6 -27 17
-69 -6 -89 -47 -17 -38 -58 -82 -81 -88 -42 -11 -51 31 -16 78 15 20 15 20 16
-3 0 -19 5 -23 28 -20 21 2 28 9 30 31 4 36 -13 57 -47 57 -36 0 -67 -24 -91
-68 -25 -46 -48 -77 -55 -71 -6 7 39 135 55 154 10 12 10 18 0 30 -24 29 -67
7 -50 -26 7 -12 6 -19 -4 -22 -8 -3 -24 -26 -35 -51 -11 -26 -27 -56 -36 -69
l-17 -22 5 25 c2 14 7 32 11 41 5 10 -3 28 -19 48 -15 17 -24 31 -20 31 4 0 2
7 -5 15 -20 24 -50 1 -50 -38 0 -44 -34 -95 -73 -112 -32 -13 -47 -12 -47 6 0
5 11 9 24 9 52 0 94 71 61 104 -23 23 -68 20 -94 -6 -13 -13 -36 -44 -52 -70
-34 -57 -56 -64 -33 -10 9 20 19 49 21 64 4 22 1 28 -20 33 -14 4 -34 2 -45
-4 -15 -8 -23 -8 -28 0 -4 6 -19 8 -38 5 -17 -4 -43 -6 -57 -6 -22 0 -29 -7
-43 -44 -17 -44 -41 -74 -52 -63 -3 3 4 39 15 79 26 92 26 114 2 128 -29 15
-37 13 -65 -20z m3 -129 c-7 -23 -18 -41 -26 -41 -18 0 -17 6 9 51 27 48 33
44 17 -10z m436 -10 c-3 -6 -11 -11 -17 -11 -6 0 -6 6 2 15 14 17 26 13 15 -4z
m535 -32 c-16 -39 -44 -41 -29 -2 6 15 15 34 22 41 17 21 21 -3 7 -39z m320
-14 c0 -16 -6 -25 -15 -25 -18 0 -19 4 -3 30 16 26 18 25 18 -5z m-1416 6 c8
-13 -21 -34 -39 -27 -20 7 -8 36 15 36 11 0 21 -4 24 -9z"/>
<path d="M2903 3823 c-12 -2 -36 -20 -53 -39 -35 -40 -43 -110 -14 -121 19 -7
34 13 34 48 0 14 10 35 23 47 32 30 52 28 24 -2 -12 -13 -30 -46 -40 -74 l-18
-49 -43 4 c-46 6 -76 -13 -76 -47 0 -35 28 -50 93 -51 34 0 82 -1 106 -1 40
-2 48 2 81 40 l38 42 6 -30 c8 -44 47 -56 105 -34 32 12 46 14 49 6 5 -15 88
-16 97 -2 4 6 15 4 30 -6 34 -22 71 -2 112 61 l33 49 -7 -51 c-5 -44 -3 -52
14 -61 14 -8 27 -7 46 3 23 12 31 12 55 -1 19 -9 41 -12 62 -8 54 11 131 104
86 104 -8 0 -16 -7 -20 -15 -8 -21 -66 -55 -82 -48 -21 8 -17 23 7 23 32 0 56
17 67 49 24 69 -55 98 -109 40 -16 -17 -29 -36 -29 -43 0 -6 -12 -24 -26 -41
-18 -21 -23 -24 -18 -10 18 50 16 83 -5 94 -12 7 -21 20 -21 31 0 10 -5 22
-10 25 -17 10 -40 -15 -40 -42 0 -28 -32 -94 -54 -112 -21 -18 -20 -7 4 57 11
29 18 57 15 62 -3 4 2 11 11 14 19 7 15 50 -6 53 -8 2 -22 -1 -30 -7 -12 -8
-13 -13 -3 -29 10 -15 9 -20 -2 -25 -8 -3 -27 -30 -41 -61 -15 -30 -30 -55
-35 -55 -5 0 -9 27 -9 60 0 56 -2 60 -22 60 -18 0 -30 -14 -54 -58 -30 -58
-81 -97 -110 -85 -20 7 -7 23 20 23 49 0 87 75 54 108 -22 22 -68 14 -99 -17
l-29 -29 0 34 c0 89 -68 136 -167 117z m89 -60 c40 -36 9 -158 -46 -177 -48
-18 -51 4 -12 90 20 43 34 84 32 91 -7 18 4 16 26 -4z m162 -98 c-7 -16 -24
-21 -24 -6 0 8 7 13 27 20 1 1 0 -6 -3 -14z m511 -4 c-3 -6 -11 -11 -17 -11
-6 0 -6 6 2 15 14 17 26 13 15 -4z m-405 -46 c0 -19 -5 -25 -20 -25 -20 0 -20
1 -3 25 22 30 23 30 23 0z m-445 -25 c-3 -5 -10 -10 -16 -10 -5 0 -9 5 -9 10
0 6 7 10 16 10 8 0 12 -4 9 -10z"/>
<path d="M5215 3820 c-27 -11 -59 -47 -82 -93 -17 -34 -21 -37 -32 -23 -11 13
-11 22 -1 45 20 50 -14 72 -44 29 -25 -35 -20 -76 14 -110 22 -21 30 -39 30
-64 0 -50 31 -78 78 -70 21 3 55 9 78 12 38 6 43 10 70 67 33 69 66 96 40 32
-31 -73 -12 -113 45 -93 18 6 34 6 47 -1 14 -7 29 -7 50 0 21 7 37 7 50 0 13
-7 26 -6 47 5 25 13 30 13 45 -1 13 -12 23 -13 44 -5 17 6 34 7 44 1 36 -20
84 18 131 104 14 26 14 5 0 -31 -22 -59 13 -96 65 -69 22 12 30 11 56 -2 22
-11 38 -12 58 -5 15 5 41 7 57 5 28 -4 32 -1 60 58 33 69 66 98 40 35 -21 -49
-19 -83 5 -96 27 -14 71 9 98 52 30 47 9 64 -26 20 -15 -18 -30 -32 -34 -32
-4 0 2 25 14 56 28 72 17 86 -61 77 -50 -6 -54 -8 -71 -47 -26 -61 -64 -91
-107 -87 -26 2 -12 21 15 21 53 0 94 74 60 108 -16 16 -59 15 -85 -3 -11 -8
-35 -40 -53 -71 -34 -61 -49 -66 -29 -10 12 33 11 38 -9 59 -12 13 -22 30 -22
39 0 9 -6 18 -14 21 -20 8 -49 -27 -42 -50 7 -20 -46 -113 -64 -113 -9 0 3 35
45 136 21 51 19 66 -7 62 -14 -2 -29 -15 -38 -35 -13 -27 -19 -30 -43 -26 -35
7 -57 -12 -97 -83 -17 -30 -35 -54 -40 -54 -14 0 -14 -4 25 94 19 48 35 91 35
97 0 5 -11 9 -26 9 -20 0 -28 -8 -40 -37 -32 -83 -58 -134 -76 -150 -10 -9
-18 -12 -18 -6 0 10 33 99 52 140 20 42 -14 72 -42 38 -9 -11 -9 -19 -2 -28 8
-10 6 -16 -9 -25 -10 -7 -19 -18 -19 -25 0 -18 -60 -111 -67 -104 -3 3 3 28
12 55 22 61 16 82 -25 82 -28 0 -30 2 -19 21 13 25 0 43 -26 37 -11 -2 -30
-32 -51 -81 -39 -93 -48 -106 -93 -124 -32 -14 -36 -13 -48 2 -16 23 0 55 28
55 50 0 119 71 119 123 0 50 -46 78 -95 57z m35 -64 c0 -20 -39 -66 -56 -66
-20 0 -18 8 12 47 26 35 44 42 44 19z m485 -103 c-7 -32 -31 -60 -42 -50 -3 4
1 23 10 42 20 42 42 47 32 8z m319 12 c-6 -16 -24 -21 -24 -7 0 11 11 22 21
22 5 0 6 -7 3 -15z"/>
<path d="M4361 3811 c-8 -5 -44 -7 -80 -4 -58 5 -68 3 -84 -15 -26 -29 -19
-83 13 -99 l24 -12 -26 -10 c-53 -20 -63 -78 -21 -111 34 -26 76 -21 113 15
33 31 55 21 40 -20 -20 -52 28 -78 50 -26 12 31 67 52 80 31 4 -6 15 -11 26
-10 20 1 62 1 92 1 85 -1 109 1 129 14 26 17 89 20 98 4 13 -20 53 -28 88 -18
43 12 104 76 88 92 -8 8 -20 2 -43 -20 -31 -30 -47 -37 -75 -34 -24 2 -13 21
12 21 33 0 75 42 75 74 0 27 -25 46 -59 46 -23 0 -81 -46 -81 -64 0 -13 -31
-46 -43 -46 -4 0 2 15 13 33 11 17 20 42 20 55 0 39 -27 24 -59 -33 -17 -30
-34 -55 -36 -55 -3 0 -4 24 -3 53 3 46 1 52 -17 52 -14 0 -23 -11 -32 -45 -14
-47 -47 -99 -58 -89 -3 3 4 27 15 53 26 62 26 80 -1 73 -12 -3 -30 -1 -40 6
-31 19 -71 -2 -96 -52 -21 -41 -38 -60 -55 -61 -3 0 9 38 28 85 19 47 34 87
34 91 0 3 -12 4 -27 2 -24 -3 -32 -13 -60 -78 -18 -41 -38 -75 -45 -75 -20 0
-11 42 22 108 16 33 27 63 24 68 -7 11 -25 11 -43 0z m-47 -60 c9 -13 -22 -81
-37 -81 -6 0 -18 4 -25 9 -10 6 -9 10 7 14 24 6 28 25 6 32 -8 3 -22 7 -31 10
-8 3 -12 9 -9 15 8 12 82 13 89 1z m256 -83 c0 -7 -10 -29 -22 -48 -20 -32
-23 -33 -26 -13 -2 12 4 33 14 47 17 28 34 34 34 14z m322 -10 c-7 -7 -12 -8
-12 -2 0 6 3 14 7 17 3 4 9 5 12 2 2 -3 -1 -11 -7 -17z m-629 -43 c-1 -5 -8
-14 -17 -20 -18 -11 -42 7 -31 25 8 13 51 9 48 -5z"/>
<path d="M2635 3780 c-3 -6 -4 -23 0 -39 3 -17 2 -32 -4 -36 -14 -8 -14 -35 0
-35 6 0 24 13 40 30 39 39 38 83 -3 88 -14 2 -29 -2 -33 -8z"/>
<path d="M3846 3758 c-21 -20 -26 -32 -18 -40 7 -7 5 -23 -9 -55 -39 -92 -15
-139 54 -104 31 16 38 16 48 5 15 -18 70 -18 95 1 10 8 27 15 37 15 27 0 72
49 58 63 -8 8 -16 5 -32 -9 l-22 -19 7 27 c23 98 -93 119 -144 25 -26 -48 -49
-77 -62 -77 -14 0 30 104 52 122 15 12 18 23 14 47 -8 40 -38 40 -78 -1z m150
-113 c-9 -7 -16 -22 -16 -34 0 -11 -5 -21 -11 -21 -16 0 -3 59 19 83 16 18 17
18 21 1 2 -10 -4 -23 -13 -29z"/>
<path d="M854 2820 c-144 -26 -297 -106 -408 -215 -170 -165 -243 -355 -234
-600 4 -100 10 -135 35 -207 114 -329 403 -538 743 -538 133 0 232 24 355 84
470 233 579 857 216 1239 -101 107 -182 158 -331 209 -71 25 -105 30 -205 33
-66 2 -143 0 -171 -5z m294 -81 c253 -49 476 -269 537 -529 20 -88 23 -231 5
-315 -14 -69 -68 -205 -82 -205 -5 0 -26 11 -46 25 -20 14 -42 25 -48 25 -7 0
-15 6 -17 13 -3 6 -6 2 -6 -10 -1 -27 -87 -133 -108 -133 -9 0 -13 -3 -10 -7
11 -10 -51 -51 -142 -95 -78 -38 -91 -41 -192 -46 -198 -9 -327 36 -454 162
-42 41 -70 77 -67 85 2 8 0 11 -5 8 -11 -7 -63 88 -63 115 0 9 -4 19 -9 22
-40 25 -43 323 -3 384 8 12 12 25 9 29 -4 3 2 18 13 33 11 16 20 31 20 35 0 4
23 36 51 71 57 72 163 155 220 174 22 7 39 18 39 23 0 6 3 8 6 5 3 -4 20 -2
37 4 18 5 74 11 126 14 95 4 140 14 63 14 l-42 0 0 54 c0 34 5 56 13 59 14 6
78 0 155 -14z"/>
<path d="M1148 2603 c7 -3 16 -2 19 1 4 3 -2 6 -13 5 -11 0 -14 -3 -6 -6z"/>
<path d="M1200 2590 c8 -5 22 -9 30 -9 10 0 8 3 -5 9 -27 12 -43 12 -25 0z"/>
<path d="M1310 2536 c0 -2 7 -7 16 -10 8 -3 12 -2 9 4 -6 10 -25 14 -25 6z"/>
<path d="M1370 2491 c0 -5 7 -12 16 -15 14 -5 15 -4 4 9 -14 17 -20 19 -20 6z"/>
<path d="M1517 2299 c4 -13 8 -18 11 -10 2 7 -1 18 -6 23 -8 8 -9 4 -5 -13z"/>
<path d="M808 2185 c-3 -14 -1 -25 3 -25 5 0 9 11 9 25 0 14 -2 25 -4 25 -2 0
-6 -11 -8 -25z"/>
<path d="M860 2197 c0 -10 8 -17 18 -17 9 0 13 4 7 8 -5 4 -13 11 -17 16 -5 5
-8 2 -8 -7z"/>
<path d="M920 2158 c0 -36 -5 -58 -12 -61 -7 -3 12 -5 42 -5 42 1 46 2 17 5
l-38 4 2 49 c2 27 0 53 -4 56 -4 4 -7 -18 -7 -48z"/>
<path d="M1562 2190 c0 -14 2 -19 5 -12 2 6 2 18 0 25 -3 6 -5 1 -5 -13z"/>
<path d="M1036 2187 c3 -10 9 -15 12 -12 3 3 0 11 -7 18 -10 9 -11 8 -5 -6z"/>
<path d="M1574 2045 c0 -66 1 -92 3 -57 2 34 2 88 0 120 -2 31 -3 3 -3 -63z"/>
<path d="M811 2134 c0 -11 3 -14 6 -6 3 7 2 16 -1 19 -3 4 -6 -2 -5 -13z"/>
<path d="M1011 2133 c-1 -12 4 -25 9 -28 12 -7 12 2 0 30 -8 19 -9 19 -9 -2z"/>
<path d="M1070 2138 c0 -9 7 -22 17 -29 15 -13 15 -12 3 11 -17 34 -20 36 -20
18z"/>
<path d="M860 2123 c0 -10 4 -14 8 -8 4 6 11 13 16 18 5 4 2 7 -7 7 -10 0 -17
-8 -17 -17z"/>
<path d="M1123 2093 c9 -2 23 -2 30 0 6 3 -1 5 -18 5 -16 0 -22 -2 -12 -5z"/>
<path d="M914 2046 c-3 -7 -4 -40 -2 -72 l3 -59 5 73 c5 72 4 84 -6 58z"/>
<path d="M782 2030 c0 -14 2 -19 5 -12 2 6 2 18 0 25 -3 6 -5 1 -5 -13z"/>
<path d="M823 2035 c0 -7 6 -11 14 -8 7 3 13 6 13 8 0 2 -6 5 -13 8 -8 3 -14
-1 -14 -8z"/>
<path d="M868 2038 c-2 -7 -1 -33 3 -58 l6 -45 1 58 c2 55 -2 71 -10 45z"/>
<path d="M960 2029 c0 -11 4 -18 10 -14 5 3 7 12 3 20 -7 21 -13 19 -13 -6z"/>
<path d="M1002 2041 c-11 -7 -11 -9 0 -14 9 -3 15 1 15 9 0 8 -1 14 -1 14 -1
0 -7 -4 -14 -9z"/>
<path d="M1050 2034 c0 -8 5 -12 10 -9 6 4 8 11 5 16 -9 14 -15 11 -15 -7z"/>
<path d="M726 2031 c-3 -4 6 -6 19 -3 14 2 25 6 25 8 0 8 -39 4 -44 -5z"/>
<path d="M1150 2033 c8 -3 20 -12 26 -19 10 -12 12 -12 16 3 4 14 -2 18 -26
20 -17 0 -24 -1 -16 -4z"/>
<path d="M1220 2036 c0 -2 11 -6 25 -8 13 -3 22 -1 19 3 -5 9 -44 13 -44 5z"/>
<path d="M1110 2019 c0 -5 5 -7 10 -4 6 3 10 8 10 11 0 2 -4 4 -10 4 -5 0 -10
-5 -10 -11z"/>
<path d="M1270 1973 c0 -24 3 -33 9 -25 7 12 4 62 -5 62 -2 0 -4 -17 -4 -37z"/>
<path d="M750 1980 c0 -5 9 -10 20 -10 11 0 20 5 20 10 0 6 -9 10 -20 10 -11
0 -20 -4 -20 -10z"/>
<path d="M829 1985 c-9 -14 8 -55 23 -55 9 0 10 2 2 8 -7 4 -14 18 -16 32 -1
14 -6 21 -9 15z"/>
<path d="M990 1980 c0 -5 7 -10 15 -10 8 0 15 5 15 10 0 6 -7 10 -15 10 -8 0
-15 -4 -15 -10z"/>
<path d="M1092 1970 c0 -14 2 -19 5 -12 2 6 2 18 0 25 -3 6 -5 1 -5 -13z"/>
<path d="M1233 1966 c1 -17 9 -31 17 -33 10 -3 11 -2 4 4 -7 4 -14 19 -17 33
-4 22 -5 21 -4 -4z"/>
<path d="M1181 1958 c0 -10 -5 -18 -11 -18 -5 0 -10 -4 -10 -8 0 -11 37 -9 47
3 5 4 3 5 -4 1 -7 -4 -13 2 -16 16 -3 15 -5 17 -6 6z"/>
<path d="M710 1941 c0 -4 11 -13 24 -19 18 -8 28 -7 43 3 10 8 13 15 8 15 -6
0 -16 -5 -23 -12 -8 -8 -12 -8 -12 -1 0 6 -9 13 -20 16 -11 3 -20 2 -20 -2z"/>
<path d="M1122 1934 c10 -10 20 -15 24 -12 3 4 -5 12 -18 18 -22 12 -22 12 -6
-6z"/>
<path d="M1023 1933 c9 -2 23 -2 30 0 6 3 -1 5 -18 5 -16 0 -22 -2 -12 -5z"/>
<path d="M1561 1894 c0 -11 3 -14 6 -6 3 7 2 16 -1 19 -3 4 -6 -2 -5 -13z"/>
<path d="M1521 1799 c-6 -18 -9 -34 -7 -36 2 -2 9 10 15 28 6 18 9 34 7 36 -2
2 -9 -10 -15 -28z"/>
<path d="M345 1027 c-3 -6 -4 -181 -3 -387 l3 -375 645 0 645 0 3 388 2 387
-645 0 c-508 0 -647 -3 -650 -13z m772 -179 c-2 -18 -4 -4 -4 32 0 36 2 50 4
33 2 -18 2 -48 0 -65z m-487 21 l0 -60 -52 3 -53 3 -3 44 c-5 65 0 71 58 71
l50 0 0 -61z m212 36 c15 -33 -3 -75 -32 -75 -11 0 -20 4 -20 9 0 5 7 8 16 7
9 0 19 5 21 12 3 7 -4 12 -16 12 -26 0 -38 25 -21 45 18 22 39 18 52 -10z m92
3 c15 -25 -4 -72 -32 -76 -12 -2 -22 1 -22 6 0 5 7 9 16 8 26 -2 28 22 2 26
-26 3 -37 36 -16 49 18 12 39 7 52 -13z m91 6 c20 -20 16 -63 -7 -78 -40 -25
-77 43 -43 78 9 9 20 16 25 16 5 0 16 -7 25 -16z m225 1 c0 -20 -32 -85 -42
-85 -11 0 -10 14 1 26 5 5 12 19 16 32 5 16 2 22 -9 22 -9 0 -16 5 -16 10 0 6
11 10 25 10 15 0 25 -6 25 -15z m77 -7 c-4 -12 -2 -27 4 -34 5 -6 7 -19 3 -28
-7 -18 -49 -22 -60 -4 -5 8 0 9 14 6 28 -8 40 11 19 27 -12 9 -14 14 -5 23 9
9 8 12 -5 12 -9 0 -17 5 -17 10 0 6 12 10 26 10 22 0 25 -3 21 -22z m46 6 c-3
-9 0 -20 8 -25 11 -7 11 -9 -3 -9 -18 0 -25 30 -11 43 11 11 13 8 6 -9z m-625
-41 c-1 -41 -2 -43 -5 -13 -3 19 -9 41 -15 47 -8 10 -6 13 6 13 13 0 16 -10
14 -47z m676 22 c-9 -14 -18 -25 -21 -25 -5 0 5 18 20 38 17 22 18 13 1 -13z
m9 -31 c-3 -9 0 -20 8 -25 11 -7 11 -9 -3 -9 -23 0 -32 18 -18 35 16 19 21 19
13 -1z m-653 -169 c11 -13 9 -20 -10 -40 -20 -21 -21 -25 -7 -25 9 0 17 -4 17
-10 0 -12 -47 -13 -54 -1 -3 5 5 16 19 25 30 20 33 46 4 46 -11 0 -17 5 -14
10 9 15 31 12 45 -5z m100 -6 c14 -26 6 -65 -16 -73 -26 -10 -54 12 -54 42 0
50 49 72 70 31z m100 0 c14 -26 6 -65 -16 -73 -26 -10 -54 12 -54 42 0 50 49
72 70 31z m87 9 c-4 -14 -36 -12 -51 3 -6 5 3 9 23 9 22 0 31 -4 28 -12z m223
7 c0 -13 -42 -86 -46 -82 -3 3 2 19 11 36 15 30 15 31 -5 31 -11 0 -20 5 -20
10 0 6 14 10 30 10 17 0 30 -2 30 -5z m78 -18 c2 -10 -4 -27 -14 -38 -10 -11
-12 -19 -6 -19 7 0 12 -4 12 -10 0 -5 -11 -10 -25 -10 -14 0 -25 4 -25 8 0 5
11 19 25 32 32 30 32 40 -1 40 -15 0 -23 4 -19 11 11 16 49 6 53 -14z m39 3
c-1 -12 -5 -16 -10 -11 -5 5 -6 14 -3 20 11 16 15 13 13 -9z m20 -12 c-3 -8
-6 -5 -6 6 -1 11 2 17 5 13 3 -3 4 -12 1 -19z m-369 -10 c29 -29 -1 -69 -36
-48 -14 8 -12 9 11 10 29 0 37 17 12 26 -16 6 -21 24 -7 24 4 0 13 -5 20 -12z
m430 -34 c4 -18 3 -18 -13 1 -14 17 -16 17 -11 3 3 -10 1 -18 -4 -18 -11 0
-13 23 -3 34 11 11 28 1 31 -20z m-67 -7 c-10 -9 -11 -8 -5 6 3 10 9 15 12 12
3 -3 0 -11 -7 -18z m-638 -151 c3 -7 -2 -24 -11 -37 -11 -16 -12 -24 -4 -27
19 -6 14 -21 -5 -17 -10 2 -24 4 -32 4 -9 1 -4 10 13 27 32 32 35 59 6 51 -11
-3 -20 -1 -20 4 0 15 47 10 53 -5z m101 -18 c8 -22 6 -32 -9 -48 -10 -11 -22
-20 -26 -20 -16 0 -39 32 -39 54 0 50 57 61 74 14z m56 -13 c0 -25 -4 -45 -10
-45 -5 0 -10 13 -10 29 0 16 -3 36 -6 45 -4 11 -1 16 10 16 12 0 16 -10 16
-45z m81 31 c-9 -11 -9 -19 1 -35 11 -17 10 -23 -4 -37 -12 -12 -20 -14 -34
-5 -18 10 -17 10 4 11 13 0 22 6 22 15 0 8 -5 15 -11 15 -6 0 -8 8 -4 19 4 14
0 21 -12 24 -10 3 -3 5 16 6 28 1 31 -1 22 -13z m86 -68 c-2 -18 -4 -6 -4 27
0 33 2 48 4 33 2 -15 2 -42 0 -60z m133 72 c0 -16 -33 -80 -42 -80 -5 0 -2 13
7 30 20 39 19 48 -7 53 -17 3 -14 5 10 6 17 0 32 -3 32 -9z m74 -69 c-3 -11
-7 -12 -16 -3 -7 7 -20 12 -30 12 -25 0 -23 9 9 43 l28 28 7 -33 c4 -18 5 -39
2 -47z m65 57 c0 -16 -2 -18 -6 -8 -3 8 -11 18 -17 22 -7 5 -4 8 7 8 11 0 17
-7 16 -22z m44 7 c-3 -9 -8 -14 -10 -11 -3 3 -2 9 2 15 9 16 15 13 8 -4z m14
-41 c-3 -3 -12 -4 -19 -1 -8 3 -5 6 6 6 11 1 17 -2 13 -5z m-5 -28 c7 4 8 2 4
-5 -9 -13 -26 -5 -25 12 0 9 2 8 6 -1 2 -6 10 -9 15 -6z"/>
<path d="M795 911 c-8 -15 3 -31 21 -31 9 0 14 7 12 17 -4 20 -24 28 -33 14z"/>
<path d="M891 910 c-16 -9 -6 -30 15 -30 15 0 20 25 6 34 -4 2 -14 1 -21 -4z"/>
<path d="M977 891 c-5 -20 9 -51 23 -51 14 0 31 37 24 54 -8 22 -41 20 -47 -3z"/>
<path d="M824 675 c-9 -23 3 -45 26 -45 16 0 20 7 20 30 0 23 -4 30 -20 30
-11 0 -23 -7 -26 -15z"/>
<path d="M924 675 c-9 -23 3 -45 26 -45 16 0 20 7 20 30 0 23 -4 30 -20 30
-11 0 -23 -7 -26 -15z"/>
<path d="M826 462 c-9 -27 3 -54 23 -50 22 5 22 62 -1 66 -9 2 -19 -5 -22 -16z"/>
<path d="M1276 445 c-3 -9 0 -15 9 -15 8 0 15 7 15 15 0 8 -4 15 -9 15 -5 0
-11 -7 -15 -15z"/>
<path d="M2663 2820 c-92 -17 -231 -76 -303 -129 -153 -112 -244 -236 -307
-418 -24 -71 -27 -92 -27 -228 0 -142 1 -155 31 -240 56 -161 147 -292 269
-383 454 -340 1093 -121 1240 424 26 94 26 302 1 394 -55 206 -200 391 -387
494 -115 62 -209 87 -345 91 -66 2 -143 0 -172 -5z m322 -87 c184 -44 369
-194 459 -370 71 -140 93 -359 52 -503 -16 -54 -58 -154 -72 -169 -6 -6 -94
49 -94 60 0 5 6 20 14 32 51 78 71 290 40 411 -61 238 -273 421 -514 444 l-75
7 0 50 c-1 28 4 53 9 57 13 9 108 -1 181 -19z m-617 -635 l8 -33 12 33 c13 38
29 41 38 7 3 -14 10 -25 14 -25 4 0 11 11 14 25 10 38 29 31 21 -7 -18 -80
-42 -100 -56 -47 l-6 24 -13 -28 c-18 -37 -29 -31 -51 28 -23 60 -22 55 -4 55
8 0 18 -14 23 -32z m602 17 c0 -8 9 -15 20 -15 13 0 20 -7 20 -19 0 -11 5 -23
10 -26 10 -6 14 7 11 33 -1 7 10 12 28 12 24 0 32 -5 37 -25 3 -14 4 -32 0
-40 -7 -18 -62 -20 -70 -2 -5 10 -7 10 -12 0 -10 -23 -24 -13 -24 17 0 36 -17
40 -22 5 -6 -46 -23 -31 -26 23 -2 42 0 52 12 52 9 0 16 -7 16 -15z m-279 -11
c10 -13 10 -17 -2 -24 -12 -8 -12 -13 -1 -31 15 -23 10 -34 -11 -26 -14 5 -30
73 -21 89 8 12 20 10 35 -8z m100 0 c10 -13 10 -17 -2 -24 -12 -8 -12 -13 -1
-31 15 -23 10 -34 -11 -26 -14 5 -30 73 -21 89 8 12 20 10 35 -8z m-239 -28
c16 -36 4 -56 -32 -56 -33 0 -51 23 -32 42 6 6 8 17 5 24 -10 27 46 17 59 -10z
m83 -13 c0 -39 -19 -45 -23 -8 -5 35 -22 31 -22 -5 0 -16 -4 -30 -10 -30 -5 0
-10 18 -10 41 0 39 1 40 33 37 29 -3 32 -6 32 -35z m250 3 c0 -52 -63 -62 -73
-12 -7 33 6 47 40 44 29 -3 33 -7 33 -32z m245 19 c0 -20 10 -19 26 2 20 28
27 9 10 -31 -18 -44 -31 -46 -45 -5 -14 39 -14 49 -1 49 6 0 10 -7 10 -15z
m126 -22 c1 -34 -16 -48 -47 -38 -24 8 -34 42 -18 61 7 8 24 14 38 12 22 -2
26 -8 27 -35z m-631 -113 c-3 -5 5 -10 17 -12 19 -2 24 -10 26 -40 2 -22 -1
-38 -7 -38 -6 0 -11 11 -11 25 0 34 -18 32 -22 -2 -5 -44 -23 -33 -26 16 -4
50 3 75 18 66 6 -4 8 -10 5 -15z m85 -46 c0 -34 -4 -53 -10 -49 -5 3 -10 28
-10 56 0 27 5 49 10 49 6 0 10 -25 10 -56z m46 35 c4 -41 6 -43 14 -21 6 12
18 22 30 22 11 0 20 5 20 10 0 6 7 10 15 10 11 0 15 -12 15 -49 0 -43 -3 -50
-24 -55 -32 -8 -56 2 -56 23 -1 14 -2 14 -14 -1 -21 -28 -26 -22 -26 33 0 36
4 49 13 46 6 -2 13 -10 13 -18z m-174 -14 c-1 -5 -10 -10 -19 -10 -10 0 -19
-8 -21 -18 -3 -13 3 -17 22 -17 31 0 34 -16 6 -25 -40 -13 -68 43 -38 73 15
15 54 12 50 -3z m328 5 c0 -5 -4 -12 -10 -15 -5 -3 -10 -17 -10 -31 0 -15 -6
-24 -15 -24 -10 0 -15 10 -15 33 0 19 2 36 5 38 8 9 45 8 45 -1z m71 -6 c11
-14 13 -14 21 0 9 16 53 22 61 9 12 -19 11 -67 0 -70 -8 -3 -13 5 -13 21 0 33
-18 34 -22 1 -4 -30 -21 -34 -28 -8 -4 15 -11 17 -35 12 -25 -5 -26 -7 -7 -8
14 -1 22 -6 20 -13 -7 -20 -39 -15 -54 7 -12 18 -11 24 2 43 18 26 37 28 55 6z"/>
<path d="M3055 2050 c-3 -5 -1 -10 4 -10 6 0 11 5 11 10 0 6 -2 10 -4 10 -3 0
-8 -4 -11 -10z"/>
<path d="M2510 2050 c0 -5 5 -10 11 -10 5 0 7 5 4 10 -3 6 -8 10 -11 10 -2 0
-4 -4 -4 -10z"/>
<path d="M2832 2063 c4 -21 33 -25 33 -3 0 8 -8 16 -18 18 -14 3 -18 -1 -15
-15z"/>
<path d="M2796 1913 c-12 -12 -6 -33 9 -33 8 0 15 6 15 14 0 17 -14 28 -24 19z"/>
<path d="M2162 653 l3 -388 640 0 640 0 3 388 2 387 -645 0 -645 0 2 -387z
m765 195 c-2 -18 -4 -4 -4 32 0 36 2 50 4 33 2 -18 2 -48 0 -65z m-487 21 l0
-60 -52 3 -53 3 -3 44 c-5 65 0 71 58 71 l50 0 0 -61z m130 11 c0 -55 -17 -59
-22 -4 -2 25 -1 47 1 49 11 11 21 -10 21 -45z m78 38 c7 -7 12 -24 12 -38 0
-14 -5 -31 -12 -38 -14 -14 -48 -16 -48 -3 0 5 7 8 16 7 9 0 19 5 21 12 3 7
-4 12 -16 12 -26 0 -38 25 -21 45 15 18 32 19 48 3z m90 0 c7 -7 12 -24 12
-38 0 -14 -5 -31 -12 -38 -14 -14 -48 -16 -48 -3 0 5 7 8 16 7 9 0 19 5 21 12
3 7 -4 12 -16 12 -26 0 -38 25 -21 45 15 18 32 19 48 3z m100 0 c17 -17 15
-63 -3 -78 -22 -18 -48 -8 -59 22 -15 44 32 86 62 56z m190 -40 c-1 -41 -2
-45 -5 -18 -3 19 -9 40 -14 46 -9 11 -4 16 19 23 1 1 1 -23 0 -51z m92 42 c0
-17 -41 -93 -46 -87 -3 3 2 19 10 36 20 38 20 41 -4 41 -11 0 -20 5 -20 10 0
6 14 10 30 10 17 0 30 -5 30 -10z m57 -24 c-4 -9 -12 -16 -19 -16 -10 0 -9 3
1 9 9 6 11 16 7 27 -6 15 -4 16 5 7 6 -6 9 -19 6 -27z m24 -9 l-24 -22 19 27
c10 14 21 24 23 22 3 -3 -6 -15 -18 -27z m39 -32 c0 -19 -20 -29 -32 -17 -8 8
-7 16 2 26 14 17 30 12 30 -9z m-644 -160 c4 -8 -1 -26 -10 -40 -9 -14 -12
-25 -6 -25 5 0 10 -4 10 -10 0 -5 -11 -10 -25 -10 -31 0 -31 5 2 44 l26 31
-27 3 c-14 2 -24 8 -21 13 10 14 45 10 51 -6z m92 3 c36 -36 -4 -101 -48 -78
-37 20 -21 90 20 90 9 0 21 -5 28 -12z m105 -9 c13 -21 2 -65 -19 -73 -41 -16
-74 50 -42 82 16 16 48 11 61 -9z m82 1 c-4 -12 -2 -27 4 -34 8 -9 7 -18 -3
-31 -11 -16 -18 -17 -37 -8 l-24 12 28 0 c29 1 37 18 12 27 -12 5 -13 10 -4
20 9 11 8 14 -5 14 -9 0 -16 5 -16 10 0 6 12 10 26 10 21 0 24 -3 19 -20z m92
-62 c-2 -18 -4 -6 -4 27 0 33 2 48 4 33 2 -15 2 -42 0 -60z m103 31 c0 -21 -4
-39 -9 -39 -9 0 -20 77 -12 85 11 12 21 -10 21 -46z m80 41 c0 -5 -9 -10 -20
-10 -27 0 -25 -18 3 -22 30 -4 36 -44 7 -53 -12 -4 -27 -1 -35 5 -18 15 -20
61 -3 78 15 15 48 16 48 2z m68 -21 c-3 -8 -7 -3 -11 10 -4 17 -3 21 5 13 5
-5 8 -16 6 -23z m2 -39 c-6 -11 -13 -20 -16 -20 -2 0 0 9 6 20 6 11 13 20 16
20 2 0 0 -9 -6 -20z m59 -8 c-1 -15 -2 -15 -6 1 -2 9 -9 15 -14 11 -5 -3 -7
-10 -4 -15 4 -5 1 -9 -4 -9 -14 0 -14 13 1 28 14 14 28 6 27 -16z m-362 -224
c-2 -18 -4 -4 -4 32 0 36 2 50 4 33 2 -18 2 -48 0 -65z m-320 67 c3 -9 -3 -25
-13 -37 -14 -15 -16 -22 -6 -25 21 -8 13 -22 -9 -18 -33 7 -33 12 -5 40 29 29
26 49 -6 39 -14 -4 -18 -2 -14 5 10 16 46 13 53 -4z m91 3 c24 -24 4 -88 -28
-88 -16 0 -40 32 -40 54 0 26 17 46 40 46 9 0 21 -5 28 -12z m60 -35 c-1 -44
-2 -45 -5 -10 -2 20 -8 37 -14 37 -5 0 -9 5 -9 10 0 6 7 10 15 10 11 0 15 -11
13 -47z m83 33 c-9 -11 -9 -19 1 -35 11 -17 10 -23 -4 -37 -12 -12 -20 -14
-34 -5 -18 10 -17 10 4 11 13 0 22 6 22 15 0 8 -5 15 -11 15 -6 0 -8 8 -4 19
4 14 0 21 -12 24 -10 3 -3 5 16 6 28 1 31 -1 22 -13z m188 -33 c-2 -34 -3 -39
-6 -18 -3 17 -9 34 -14 40 -14 14 -11 25 6 25 11 0 15 -11 14 -47z m74 40
c-30 -6 -30 -31 -1 -35 30 -4 35 -34 8 -48 -27 -14 -50 2 -50 35 0 40 11 55
39 54 23 -2 24 -2 4 -6z m82 -12 c0 -8 -6 -15 -13 -17 -7 -1 -8 0 -2 3 16 7
12 21 -7 27 -14 4 -14 4 2 3 11 -1 20 -9 20 -16z m58 -45 c8 -19 -18 -42 -29
-25 -4 8 -3 9 4 5 7 -4 12 -1 12 8 0 8 -6 17 -12 19 -8 4 -7 6 3 6 9 1 19 -5
22 -13z"/>
<path d="M2610 905 c-10 -12 -9 -16 5 -21 23 -9 40 10 22 25 -11 9 -17 8 -27
-4z"/>
<path d="M2700 905 c-10 -12 -9 -16 5 -21 23 -9 40 10 22 25 -11 9 -17 8 -27
-4z"/>
<path d="M2790 882 c0 -33 22 -48 40 -27 17 21 8 50 -18 53 -18 3 -22 -1 -22
-26z"/>
<path d="M3216 861 c-4 -7 -5 -15 -2 -18 9 -9 19 4 14 18 -4 11 -6 11 -12 0z"/>
<path d="M2637 676 c-10 -26 4 -47 27 -44 15 2 21 10 21 28 0 29 -38 41 -48
16z"/>
<path d="M2736 675 c-8 -23 4 -45 24 -45 24 0 33 15 25 40 -7 23 -40 27 -49 5z"/>
<path d="M3112 643 c2 -10 10 -18 18 -18 22 0 18 29 -3 33 -14 3 -18 -1 -15
-15z"/>
<path d="M2640 461 c-13 -25 -3 -51 20 -51 23 0 36 36 20 55 -17 20 -27 19
-40 -4z"/>
<path d="M3067 434 c-9 -10 2 -24 19 -24 8 0 14 7 14 15 0 15 -21 21 -33 9z"/>
<path d="M4392 2815 c-253 -57 -439 -202 -552 -430 -197 -399 -16 -885 395
-1063 98 -42 198 -62 312 -62 434 0 783 350 783 785 0 351 -245 669 -585 761
-84 22 -274 27 -353 9z m381 -96 c241 -80 423 -286 472 -536 9 -45 15 -94 13
-110 -3 -27 -5 -28 -66 -31 -52 -2 -63 -6 -61 -20 4 -40 -2 -93 -9 -88 -5 3
-8 -5 -7 -17 2 -26 -28 -119 -48 -147 -8 -11 -17 -17 -22 -12 -5 4 -5 2 -1 -5
10 -17 -34 -85 -51 -79 -8 4 -11 1 -7 -5 10 -17 -99 -112 -163 -143 -87 -42
-94 -45 -148 -56 -57 -13 -192 -15 -250 -5 -50 9 -145 48 -196 81 -28 17 -37
29 -33 41 5 14 4 15 -4 4 -11 -15 -36 -6 -27 10 4 5 0 9 -8 9 -26 0 -117 113
-117 145 0 9 -4 14 -9 11 -5 -4 -17 18 -27 46 -9 29 -19 58 -23 63 -10 18 -13
39 -16 108 -2 38 -5 71 -8 73 -9 9 3 91 25 164 24 82 82 185 99 174 6 -3 9 2
7 12 -2 12 2 18 10 16 8 -1 11 2 8 7 -14 23 175 158 242 172 4 0 23 7 42 14
46 18 138 25 143 11 2 -7 11 -7 28 1 l24 12 -25 -2 c-24 -2 -25 1 -25 53 -1
30 1 59 3 63 8 16 146 -4 235 -34z"/>
<path d="M4770 2580 c8 -5 20 -10 25 -10 6 0 3 5 -5 10 -8 5 -19 10 -25 10 -5
0 -3 -5 5 -10z"/>
<path d="M4914 2491 c20 -22 26 -25 26 -13 0 4 -10 13 -22 21 -23 14 -23 14
-4 -8z"/>
<path d="M4950 2466 c0 -2 8 -10 18 -17 15 -13 16 -12 3 4 -13 16 -21 21 -21
13z"/>
<path d="M5016 2387 c3 -10 9 -15 12 -12 3 3 0 11 -7 18 -10 9 -11 8 -5 -6z"/>
<path d="M5050 2338 c0 -3 7 -19 15 -34 8 -16 15 -22 15 -14 -1 8 -7 24 -15
34 -8 11 -15 17 -15 14z"/>
<path d="M5091 2244 c0 -11 3 -14 6 -6 3 7 2 16 -1 19 -3 4 -6 -2 -5 -13z"/>
<path d="M4193 2223 c9 -2 25 -2 35 0 9 3 1 5 -18 5 -19 0 -27 -2 -17 -5z"/>
<path d="M4466 2198 c3 -5 10 -6 15 -3 13 9 11 12 -6 12 -8 0 -12 -4 -9 -9z"/>
<path d="M4576 2193 c-6 -14 -5 -15 5 -6 7 7 10 15 7 18 -3 3 -9 -2 -12 -12z"/>
<path d="M4776 2195 c-9 -26 -7 -32 5 -12 6 10 9 21 6 23 -2 3 -7 -2 -11 -11z"/>
<path d="M4270 2185 c0 -8 2 -15 4 -15 2 0 6 7 10 15 3 8 1 15 -4 15 -6 0 -10
-7 -10 -15z"/>
<path d="M4390 2149 c0 -5 5 -7 10 -4 6 3 10 8 10 11 0 2 -4 4 -10 4 -5 0 -10
-5 -10 -11z"/>
<path d="M4492 2135 c0 -16 2 -22 5 -12 2 9 2 23 0 30 -3 6 -5 -1 -5 -18z"/>
<path d="M4722 2140 c0 -14 2 -19 5 -12 2 6 2 18 0 25 -3 6 -5 1 -5 -13z"/>
<path d="M4813 2145 c0 -8 4 -15 9 -15 4 0 8 7 8 15 0 8 -4 15 -8 15 -5 0 -9
-7 -9 -15z"/>
<path d="M4911 2144 c0 -11 3 -14 6 -6 3 7 2 16 -1 19 -3 4 -6 -2 -5 -13z"/>
<path d="M5122 2130 c0 -19 2 -27 5 -17 2 9 2 25 0 35 -3 9 -5 1 -5 -18z"/>
<path d="M4670 2141 c0 -6 4 -13 10 -16 6 -3 7 1 4 9 -7 18 -14 21 -14 7z"/>
<path d="M4211 2124 c0 -11 3 -14 6 -6 3 7 2 16 -1 19 -3 4 -6 -2 -5 -13z"/>
<path d="M4860 2126 c0 -8 4 -17 9 -20 5 -4 7 3 4 14 -6 23 -13 26 -13 6z"/>
<path d="M4510 2099 c0 -11 34 -16 55 -9 16 6 12 8 -17 12 -21 2 -38 1 -38 -3z"/>
<path d="M4298 2093 c6 -2 18 -2 25 0 6 3 1 5 -13 5 -14 0 -19 -2 -12 -5z"/>
<path d="M4463 2093 c9 -2 23 -2 30 0 6 3 -1 5 -18 5 -16 0 -22 -2 -12 -5z"/>
<path d="M4608 2093 c6 -2 18 -2 25 0 6 3 1 5 -13 5 -14 0 -19 -2 -12 -5z"/>
<path d="M4748 2093 c7 -3 16 -2 19 1 4 3 -2 6 -13 5 -11 0 -14 -3 -6 -6z"/>
<path d="M4805 2090 c3 -5 12 -7 20 -3 21 7 19 13 -6 13 -11 0 -18 -4 -14 -10z"/>
<path d="M4898 2093 c7 -3 16 -2 19 1 4 3 -2 6 -13 5 -11 0 -14 -3 -6 -6z"/>
<path d="M4270 2070 c0 -5 5 -10 10 -10 6 0 10 5 10 10 0 6 -4 10 -10 10 -5 0
-10 -4 -10 -10z"/>
<path d="M4360 2070 c-8 -5 -10 -10 -5 -10 6 0 17 5 25 10 8 5 11 10 5 10 -5
0 -17 -5 -25 -10z"/>
<path d="M4835 2070 c-3 -5 -1 -10 4 -10 6 0 11 5 11 10 0 6 -2 10 -4 10 -3 0
-8 -4 -11 -10z"/>
<path d="M4516 2053 c-6 -14 -5 -15 5 -6 7 7 10 15 7 18 -3 3 -9 -2 -12 -12z"/>
<path d="M4730 2059 c0 -5 5 -7 10 -4 6 3 10 8 10 11 0 2 -4 4 -10 4 -5 0 -10
-5 -10 -11z"/>
<path d="M4805 2060 c3 -5 8 -10 11 -10 2 0 4 5 4 10 0 6 -5 10 -11 10 -5 0
-7 -4 -4 -10z"/>
<path d="M4300 2048 c0 -14 8 -18 33 -17 27 2 28 2 7 6 -14 3 -28 10 -32 17
-5 7 -8 5 -8 -6z"/>
<path d="M4666 2035 c24 -39 24 -40 24 -28 0 6 -9 21 -21 34 l-20 24 17 -30z"/>
<path d="M3992 2020 c0 -19 2 -27 5 -17 2 9 2 25 0 35 -3 9 -5 1 -5 -18z"/>
<path d="M4125 2040 c-3 -5 -2 -10 4 -10 5 0 13 5 16 10 3 6 2 10 -4 10 -5 0
-13 -4 -16 -10z"/>
<path d="M4407 2038 c2 -5 13 -8 24 -8 10 0 19 3 19 8 0 4 -11 7 -24 7 -13 0
-22 -3 -19 -7z"/>
<path d="M4550 2038 c0 -4 7 -8 15 -8 8 0 15 4 15 8 0 5 -7 9 -15 9 -8 0 -15
-4 -15 -9z"/>
<path d="M4760 2025 c1 -26 2 -28 11 -12 8 14 8 22 0 30 -8 8 -11 3 -11 -18z"/>
<path d="M4860 2034 c0 -8 5 -12 10 -9 6 4 8 11 5 16 -9 14 -15 11 -15 -7z"/>
<path d="M4940 2040 c0 -5 5 -10 11 -10 5 0 7 5 4 10 -3 6 -8 10 -11 10 -2 0
-4 -4 -4 -10z"/>
<path d="M5035 2040 c3 -4 14 -10 25 -13 11 -3 18 -2 15 3 -3 4 -14 10 -25 13
-11 3 -18 2 -15 -3z"/>
<path d="M4721 1993 c0 -28 2 -54 7 -57 4 -2 6 14 4 37 -5 68 -10 76 -11 20z"/>
<path d="M4898 2033 c7 -3 16 -2 19 1 4 3 -2 6 -13 5 -11 0 -14 -3 -6 -6z"/>
<path d="M4991 2024 c0 -11 3 -14 6 -6 3 7 2 16 -1 19 -3 4 -6 -2 -5 -13z"/>
<path d="M4516 2015 c-9 -26 -7 -32 5 -12 6 10 9 21 6 23 -2 3 -7 -2 -11 -11z"/>
<path d="M4211 2004 c0 -11 3 -14 6 -6 3 7 2 16 -1 19 -3 4 -6 -2 -5 -13z"/>
<path d="M4171 1984 c0 -11 3 -14 6 -6 3 7 2 16 -1 19 -3 4 -6 -2 -5 -13z"/>
<path d="M4420 1979 c0 -5 5 -7 10 -4 6 3 10 8 10 11 0 2 -4 4 -10 4 -5 0 -10
-5 -10 -11z"/>
<path d="M4556 1979 c6 -11 44 -12 44 -1 0 4 -11 8 -25 8 -14 1 -22 -2 -19 -7z"/>
<path d="M4800 1980 c0 -5 5 -10 10 -10 6 0 10 5 10 10 0 6 -4 10 -10 10 -5 0
-10 -4 -10 -10z"/>
<path d="M4901 1969 c0 -16 5 -29 14 -33 8 -3 15 -1 15 4 0 6 -4 10 -9 10 -5
0 -12 10 -14 23 -4 20 -4 19 -6 -4z"/>
<path d="M3991 1964 c0 -11 3 -14 6 -6 3 7 2 16 -1 19 -3 4 -6 -2 -5 -13z"/>
<path d="M4175 1950 c3 -5 8 -10 11 -10 2 0 4 5 4 10 0 6 -5 10 -11 10 -5 0
-7 -4 -4 -10z"/>
<path d="M4471 1932 c-17 -31 -13 -40 5 -14 9 13 14 26 11 29 -3 2 -10 -4 -16
-15z"/>
<path d="M4100 1930 c0 -5 5 -10 11 -10 5 0 7 5 4 10 -3 6 -8 10 -11 10 -2 0
-4 -4 -4 -10z"/>
<path d="M4528 1933 c7 -3 16 -2 19 1 4 3 -2 6 -13 5 -11 0 -14 -3 -6 -6z"/>
<path d="M4980 1936 c0 -2 9 -6 20 -9 11 -3 18 -1 14 4 -5 9 -34 13 -34 5z"/>
<path d="M4548 1913 c6 -2 18 -2 25 0 6 3 1 5 -13 5 -14 0 -19 -2 -12 -5z"/>
<path d="M4408 1903 c6 -2 18 -2 25 0 6 3 1 5 -13 5 -14 0 -19 -2 -12 -5z"/>
<path d="M4995 1700 c-3 -5 -1 -10 4 -10 6 0 11 5 11 10 0 6 -2 10 -4 10 -3 0
-8 -4 -11 -10z"/>
<path d="M3898 1033 c-2 -5 -1 -179 2 -388 l5 -380 640 0 640 0 3 388 2 387
-644 0 c-355 0 -646 -3 -648 -7z m310 -166 l3 -58 -53 3 -53 3 -3 44 c-5 66 1
73 55 69 l48 -3 3 -58z m120 11 l-1 -53 -6 45 c-6 43 -5 60 5 60 2 0 3 -24 2
-52z m90 40 c7 -7 12 -24 12 -38 0 -14 -5 -31 -12 -38 -14 -14 -48 -16 -48 -3
0 5 7 8 16 7 9 0 19 5 21 12 3 7 -4 12 -16 12 -26 0 -38 25 -21 45 15 18 32
19 48 3z m90 0 c7 -7 12 -24 12 -38 0 -14 -5 -31 -12 -38 -14 -14 -48 -16 -48
-3 0 5 7 8 16 7 9 0 19 5 21 12 3 7 -4 12 -16 12 -26 0 -38 25 -21 45 15 18
32 19 48 3z m100 0 c7 -7 12 -24 12 -38 0 -51 -52 -69 -72 -25 -9 19 -8 29 6
50 18 27 35 32 54 13z m89 -70 c-2 -18 -4 -6 -4 27 0 33 2 48 4 33 2 -15 2
-42 0 -60z m130 60 c-4 -12 -2 -27 4 -34 5 -6 7 -19 3 -28 -7 -18 -49 -22 -60
-4 -5 8 0 9 14 6 27 -8 41 11 18 24 -14 8 -15 13 -5 24 9 11 8 14 -5 14 -9 0
-16 5 -16 10 0 6 12 10 26 10 22 0 25 -3 21 -22z m45 0 c-5 -21 -4 -22 11 -9
15 12 17 12 11 -3 -8 -22 -34 -20 -34 2 0 16 8 32 16 32 1 0 0 -10 -4 -22z
m48 -18 c-6 -11 -13 -20 -16 -20 -2 0 0 9 6 20 6 11 13 20 16 20 2 0 0 -9 -6
-20z m13 -26 c-3 -9 0 -20 8 -25 11 -7 11 -9 -3 -9 -23 0 -32 18 -18 35 16 19
21 19 13 -1z m-574 -163 c14 -9 7 -51 -10 -51 -5 0 -9 -4 -9 -10 0 -5 7 -10
16 -10 8 0 12 -4 9 -10 -9 -14 -55 -12 -55 3 0 7 9 18 20 25 26 16 26 42 -1
42 -11 0 -17 5 -14 10 8 12 25 13 44 1z m99 -3 c19 -19 15 -66 -7 -78 -25 -13
-27 -13 -45 6 -30 29 -14 84 24 84 9 0 21 -5 28 -12z m100 0 c22 -22 14 -67
-13 -80 -31 -14 -55 3 -55 41 0 30 16 51 40 51 9 0 21 -5 28 -12z m90 1 c-2
-6 -7 -10 -11 -10 -4 1 -14 1 -22 1 -8 0 -15 5 -15 10 0 6 12 10 26 10 14 0
24 -5 22 -11z m79 -71 c-2 -18 -4 -6 -4 27 0 33 2 48 4 33 2 -15 2 -42 0 -60z
m138 72 c4 -6 -5 -10 -19 -10 -14 0 -26 -4 -26 -10 0 -5 8 -10 18 -10 18 0 42
-18 42 -32 0 -13 -38 -28 -54 -22 -20 7 -22 80 -3 87 20 9 35 8 42 -3z m64
-18 c-1 -15 -2 -15 -6 1 -2 9 -9 15 -14 11 -5 -3 -6 -10 -3 -16 4 -7 2 -8 -5
-4 -9 6 -9 11 0 22 14 17 29 9 28 -14z m51 14 c0 -3 -4 -8 -10 -11 -5 -3 -10
-1 -10 4 0 6 5 11 10 11 6 0 10 -2 10 -4z m-330 -58 c0 -24 -23 -33 -47 -18
-16 10 -16 11 4 7 29 -6 41 12 20 28 -9 7 -14 15 -10 18 10 11 33 -14 33 -35z
m335 12 c4 -6 1 -9 -7 -8 -7 2 -12 -3 -10 -10 1 -8 -2 -11 -8 -7 -8 5 -7 11 1
21 14 17 16 17 24 4z m-298 -242 c-2 -18 -4 -4 -4 32 0 36 2 50 4 33 2 -18 2
-48 0 -65z m-320 67 c3 -9 -2 -24 -11 -34 -20 -22 -20 -28 2 -34 9 -3 2 -5
-15 -6 -37 -1 -43 13 -13 31 11 7 20 21 20 31 0 14 -5 17 -20 12 -11 -4 -20
-2 -20 4 0 17 50 13 57 -4z m91 3 c17 -17 15 -48 -5 -70 -20 -22 -27 -22 -47
-2 -30 29 -14 84 24 84 9 0 21 -5 28 -12z m61 -35 c-2 -34 -3 -39 -6 -18 -3
17 -9 34 -14 40 -14 14 -11 25 6 25 11 0 15 -11 14 -47z m82 33 c-9 -11 -9
-19 1 -35 11 -17 10 -23 -4 -37 -11 -11 -23 -14 -35 -9 -15 6 -15 8 -3 12 47
14 46 14 27 27 -10 8 -15 20 -11 29 3 10 -1 17 -13 20 -10 3 -3 5 16 6 28 1
31 -1 22 -13z m214 -6 c-4 -12 -2 -27 5 -34 8 -11 7 -18 -5 -30 -19 -19 -24
-19 -45 -6 -12 8 -9 10 13 10 30 0 36 14 10 29 -14 7 -15 12 -4 24 10 13 8 16
-11 20 -17 3 -14 5 10 6 29 1 33 -1 27 -19z m65 1 c0 -24 -16 -36 -26 -20 -4
8 -3 9 4 5 7 -4 12 -1 12 8 0 8 -6 17 -12 19 -8 3 -6 6 5 6 10 1 17 -6 17 -18z
m43 4 c-3 -9 -8 -14 -10 -11 -3 3 -2 9 2 15 9 16 15 13 8 -4z m10 -42 c-7 -2
-13 -11 -13 -19 0 -9 5 -12 12 -8 7 4 8 3 4 -5 -10 -16 -26 -4 -26 20 0 12 7
19 18 18 10 0 12 -3 5 -6z"/>
<path d="M4376 905 c-3 -9 1 -18 10 -22 19 -7 28 2 21 22 -8 19 -23 19 -31 0z"/>
<path d="M4477 913 c-4 -3 -7 -12 -7 -20 0 -15 26 -18 34 -4 7 11 -18 33 -27
24z"/>
<path d="M4567 904 c-11 -11 -8 -52 3 -59 17 -10 41 16 38 39 -3 21 -28 33
-41 20z"/>
<path d="M4405 680 c-11 -17 6 -50 25 -50 19 0 36 33 25 50 -3 5 -15 10 -25
10 -10 0 -22 -5 -25 -10z"/>
<path d="M4506 675 c-8 -22 4 -45 24 -45 10 0 20 7 24 15 8 22 -4 45 -24 45
-10 0 -20 -7 -24 -15z"/>
<path d="M4824 649 c-8 -14 11 -33 25 -25 16 10 13 36 -3 36 -8 0 -18 -5 -22
-11z"/>
<path d="M4410 461 c-13 -25 -3 -51 20 -51 23 0 36 36 20 55 -17 20 -27 19
-40 -4z"/>
<path d="M6148 2820 c-292 -53 -537 -276 -620 -565 -18 -65 -23 -104 -23 -210
0 -154 15 -219 79 -350 133 -270 399 -435 701 -435 343 0 633 210 746 540 31
90 33 103 33 240 1 125 -2 155 -22 220 -84 266 -274 457 -537 540 -78 24 -274
36 -357 20z m380 -108 c314 -116 503 -426 462 -758 -6 -48 -17 -102 -25 -121
l-14 -33 -43 17 c-24 9 -44 17 -46 19 -2 1 4 36 12 78 37 176 3 335 -105 493
-44 63 -126 130 -214 173 -74 37 -193 70 -251 70 -22 0 -24 4 -24 51 l0 52 83
-6 c56 -3 108 -14 165 -35z m-614 -512 c37 -14 37 -66 0 -80 -48 -19 -54 -14
-54 40 0 54 6 59 54 40z m391 -48 c1 -56 -19 -49 -23 7 -2 31 0 42 9 39 8 -3
13 -22 14 -46z m379 12 c-4 -14 -1 -31 7 -41 12 -14 12 -16 -1 -11 -15 5 -33
66 -24 80 11 17 24 -4 18 -28z m-660 10 c20 -19 20 -38 1 -54 -17 -14 -51 -5
-59 17 -6 15 19 53 35 53 4 0 15 -7 23 -16z m135 -28 c-2 -30 -2 -30 -6 -3 -5
34 -33 36 -33 2 0 -14 -4 -25 -10 -25 -18 0 -11 58 8 62 30 7 42 -3 41 -36z
m85 28 c20 -19 20 -38 1 -54 -16 -14 -51 -5 -58 14 -6 15 19 56 33 56 5 0 16
-7 24 -16z m290 10 c10 -4 16 -18 16 -35 0 -37 -15 -38 -18 -2 -1 15 -8 30
-15 35 -14 9 -5 10 17 2z m105 -38 c-1 -29 -1 -29 -8 -6 -4 14 -13 25 -21 25
-8 0 -17 -11 -21 -25 -7 -23 -7 -23 -8 7 -1 22 4 33 17 35 30 7 42 -3 41 -36z
m-239 4 c5 0 13 8 19 18 9 16 10 16 16 0 9 -22 25 -24 25 -3 0 8 5 15 11 15 6
0 8 -9 4 -22 -11 -36 -25 -45 -37 -25 -9 18 -10 18 -23 0 -16 -21 -22 -17 -28
17 -2 14 -2 19 0 13 3 -7 8 -13 13 -13z m112 -7 c-10 -4 -10 -8 -1 -19 8 -9 8
-14 1 -14 -15 0 -25 18 -17 30 3 6 12 10 18 9 8 0 8 -2 -1 -6z m-412 -163 c-8
-34 -8 -33 -9 15 0 34 3 45 9 35 4 -9 5 -31 0 -50z m130 15 c0 -25 -4 -45 -10
-45 -5 0 -10 20 -10 45 0 25 5 45 10 45 6 0 10 -20 10 -45z m90 -6 c0 -27 -4
-48 -9 -45 -8 5 -8 18 -2 84 1 6 3 12 6 12 3 0 5 -23 5 -51z m-260 14 c0 -2
-8 -3 -17 -1 -13 2 -18 -4 -18 -22 0 -18 5 -25 17 -24 10 1 15 -2 12 -7 -9
-15 -33 -10 -44 10 -13 25 -13 27 5 45 13 13 45 13 45 -1z m90 -29 c0 -13 -5
-24 -11 -24 -6 0 -9 9 -6 20 3 11 1 23 -4 26 -5 3 -9 10 -9 16 0 7 6 6 15 -2
8 -7 15 -23 15 -36z m120 21 c-11 -13 -10 -19 5 -35 19 -21 7 -28 -13 -8 -15
15 -15 41 0 56 17 17 24 6 8 -13z m194 -1 c3 -9 -1 -14 -11 -14 -9 0 -13 3
-10 7 4 3 2 12 -5 20 -8 11 -7 12 5 7 8 -3 18 -12 21 -20z m85 -23 c-1 -20 -2
-22 -6 -6 -3 11 -9 24 -14 30 -15 15 -10 28 6 15 8 -7 14 -24 14 -39z m-359 9
c0 -16 -4 -30 -10 -30 -5 0 -10 14 -10 30 0 17 5 30 10 30 6 0 10 -13 10 -30z
m182 18 c-5 -7 -12 -22 -15 -33 -3 -13 -5 -9 -6 13 -1 23 3 32 15 32 12 0 14
-3 6 -12z m66 -46 c16 -13 16 -14 -2 -10 -26 4 -41 31 -31 54 8 17 9 16 12 -6
3 -14 12 -31 21 -38z m66 31 c-10 -40 -14 -41 -14 -5 0 18 5 32 10 32 6 0 8
-11 4 -27z"/>
<path d="M5870 2160 c0 -28 3 -31 28 -28 21 2 27 8 27 28 0 20 -6 26 -27 28
-25 3 -28 0 -28 -28z"/>
<path d="M5980 2151 c0 -26 17 -36 35 -21 18 15 8 40 -16 40 -12 0 -19 -7 -19
-19z"/>
<path d="M6213 2173 c-16 -6 -17 -39 -2 -49 6 -3 17 0 25 8 12 11 12 17 2 30
-7 9 -19 14 -25 11z"/>
<path d="M5642 653 l3 -388 643 -3 642 -2 0 390 0 390 -645 0 -645 0 2 -387z
m279 270 c1 -5 2 -30 2 -58 l2 -50 -55 0 -55 0 -3 44 c-5 65 0 71 58 71 27 0
50 -3 51 -7z m117 -45 l-1 -53 -6 45 c-6 43 -5 60 5 60 2 0 3 -24 2 -52z m90
40 c7 -7 12 -24 12 -38 0 -14 -5 -31 -12 -38 -14 -14 -48 -16 -48 -3 0 5 7 8
16 7 9 0 19 5 21 12 3 7 -4 12 -16 12 -26 0 -38 25 -21 45 15 18 32 19 48 3z
m90 0 c7 -7 12 -24 12 -38 0 -14 -5 -31 -12 -38 -14 -14 -48 -16 -48 -3 0 5 7
8 16 7 9 0 19 5 21 12 3 7 -4 12 -16 12 -26 0 -38 25 -21 45 15 18 32 19 48 3z
m100 0 c7 -7 12 -24 12 -38 0 -49 -53 -70 -69 -27 -18 48 24 98 57 65z m89
-70 c-2 -18 -4 -6 -4 27 0 33 2 48 4 33 2 -15 2 -42 0 -60z m184 69 c-6 -8 -8
-17 -4 -20 12 -12 23 -7 24 11 1 16 2 16 6 -1 2 -9 9 -14 15 -11 6 4 5 -2 -1
-15 -14 -25 -23 -28 -14 -4 4 11 3 14 -6 9 -19 -12 -44 13 -30 30 6 8 14 14
16 14 3 0 0 -6 -6 -13z m-44 -39 c2 -20 -1 -39 -7 -43 -5 -3 -10 -1 -10 4 0 6
-8 11 -18 11 -30 0 -33 11 -9 41 28 35 39 32 44 -13z m129 -37 c-4 -6 -15 -10
-24 -10 -15 1 -14 2 1 6 12 3 16 10 12 21 -5 13 -3 14 6 5 6 -6 8 -16 5 -22z
m-600 -146 c4 -8 -1 -26 -10 -40 -15 -23 -15 -25 -1 -25 9 0 13 -4 10 -10 -9
-14 -55 -12 -55 3 0 7 9 18 20 25 26 16 26 42 -1 42 -11 0 -17 5 -14 10 9 15
45 12 51 -5z m92 3 c7 -7 12 -24 12 -40 0 -50 -64 -61 -76 -13 -12 47 33 84
64 53z m100 0 c7 -7 12 -24 12 -40 0 -50 -64 -61 -76 -13 -12 47 33 84 64 53z
m90 1 c-2 -6 -7 -10 -11 -10 -4 1 -14 1 -22 1 -8 0 -15 5 -15 10 0 6 12 10 26
10 14 0 24 -5 22 -11z m224 -19 c0 -16 1 -36 2 -42 1 -15 -43 -13 -58 2 -8 8
31 68 47 69 4 1 8 -12 9 -29z m64 19 c3 -6 1 -16 -6 -22 -10 -9 -11 -9 -6 0 3
6 2 14 -4 18 -5 3 -10 -2 -10 -11 0 -10 -3 -15 -6 -11 -9 8 3 37 15 37 5 0 13
-5 17 -11z m-276 -60 c0 -17 -40 -30 -58 -19 -15 10 -14 11 5 7 29 -6 41 12
20 28 -9 7 -14 15 -10 19 7 7 43 -22 43 -35z m307 -11 c-3 -8 -6 -5 -6 6 -1
11 2 17 5 13 3 -3 4 -12 1 -19z m33 12 c0 -5 -2 -10 -4 -10 -3 0 -8 5 -11 10
-3 6 -1 10 4 10 6 0 11 -4 11 -10z m-632 -171 c2 -9 -4 -24 -13 -32 -19 -20
-19 -27 2 -27 11 0 14 -3 7 -10 -10 -10 -54 -3 -54 9 0 4 9 13 20 21 28 20 27
54 -1 45 -15 -5 -19 -4 -14 5 10 16 49 8 53 -11z m95 0 c13 -21 1 -65 -19 -73
-19 -7 -54 20 -54 41 0 47 50 69 73 32z m55 -26 c-1 -44 -2 -45 -5 -10 -2 20
-8 37 -14 37 -5 0 -9 5 -9 10 0 6 7 10 15 10 11 0 15 -11 13 -47z m83 33 c-9
-11 -9 -19 1 -35 10 -17 10 -23 -3 -36 -9 -9 -23 -13 -32 -9 -23 9 -21 23 2
17 23 -6 38 15 16 23 -10 4 -13 13 -10 24 4 12 0 20 -12 23 -10 3 -3 5 16 6
28 1 31 -1 22 -13z m202 7 c-28 -5 -30 -23 -4 -30 27 -7 33 -29 15 -48 -18
-17 -24 -18 -44 -5 -12 8 -9 10 13 10 33 0 37 27 5 32 -21 3 -30 21 -21 41 2
4 16 6 31 6 24 -2 24 -2 5 -6z m71 -1 c-6 -4 -14 -14 -17 -22 -4 -10 -6 -8 -6
8 -1 15 5 22 17 22 10 0 13 -3 6 -8z m72 -60 c1 -7 0 -8 -3 -2 -7 15 -23 12
-23 -6 0 -8 -4 -13 -10 -9 -5 3 -7 12 -3 21 6 18 35 15 39 -4z"/>
<path d="M6091 906 c-12 -14 -5 -26 16 -26 15 0 18 26 4 34 -5 3 -14 0 -20 -8z"/>
<path d="M6187 913 c-4 -3 -7 -12 -7 -20 0 -15 26 -18 34 -4 7 11 -18 33 -27
24z"/>
<path d="M6277 904 c-11 -11 -8 -52 3 -59 17 -10 41 16 38 39 -3 21 -28 33
-41 20z"/>
<path d="M6510 874 c0 -8 5 -12 10 -9 6 3 10 10 10 16 0 5 -4 9 -10 9 -5 0
-10 -7 -10 -16z"/>
<path d="M6120 660 c0 -23 5 -30 19 -30 10 0 21 7 25 15 8 23 -4 45 -25 45
-14 0 -19 -7 -19 -30z"/>
<path d="M6220 660 c0 -23 5 -30 19 -30 10 0 21 7 25 15 8 23 -4 45 -25 45
-14 0 -19 -7 -19 -30z"/>
<path d="M6540 660 c0 -5 4 -10 9 -10 6 0 13 5 16 10 3 6 -1 10 -9 10 -9 0
-16 -4 -16 -10z"/>
<path d="M6127 473 c-4 -3 -7 -19 -7 -35 0 -21 5 -28 19 -28 24 0 37 36 21 55
-14 16 -23 19 -33 8z"/>
</g>
</svg>
