<svg width="848" height="420" xmlns="http://www.w3.org/2000/svg" version="1.1"><g transform="translate(0, 10)"><g class="links" fill="none" stroke-opacity="0.4"><path d="M5,63.333333333333194C213.25,63.333333333333194,213.25,68.33333333333329,421.5,68.33333333333329" stroke-width="126.66666666666667" style="stroke: rgb(191, 105, 105);"></path><path d="M5,336.6666666666668C213.25,336.6666666666668,213.25,331.66666666666663,421.5,331.66666666666663" stroke-width="126.66666666666667" style="stroke: rgb(174, 191, 105);"></path><path d="M5,200.00000000000006C213.25,200.00000000000006,213.25,194.99999999999997,421.5,194.99999999999997" stroke-width="126.66666666666667" style="stroke: rgb(105, 191, 139);"></path><path d="M426.5,194.99999999999997C634.75,194.99999999999997,634.75,331.66666666666674,843,331.66666666666674" stroke-width="126.66666666666667" style="stroke: rgb(105, 139, 191);"></path><path d="M426.5,68.33333333333329C634.75,68.33333333333329,634.75,68.3333333333334,843,68.3333333333334" stroke-width="126.66666666666667" style="stroke: rgb(105, 139, 191);"></path><path d="M426.5,331.66666666666663C634.75,331.66666666666663,634.75,195.00000000000009,843,195.00000000000009" stroke-width="126.66666666666667" style="stroke: rgb(174, 105, 191);"></path></g><g class="nodes" font-family="Arial, Helvetica" font-size="10"><g><rect x="0" y="-1.4210854715202004e-13" height="126.66666666666686" width="5" fill="#000"></rect><text x="11" y="63.333333333333286" dy="0.35em" text-anchor="start">165</text></g><g><rect x="0" y="273.3333333333335" height="126.66666666666663" width="5" fill="#000"></rect><text x="11" y="336.6666666666668" dy="0.35em" text-anchor="start">225</text></g><g><rect x="0" y="136.6666666666667" height="126.6666666666668" width="5" fill="#000"></rect><text x="11" y="200.0000000000001" dy="0.35em" text-anchor="start">641</text></g><g><rect x="843" y="5.000000000000057" height="253.33333333333334" width="5" fill="#000"></rect><text x="837" y="131.66666666666674" dy="0.35em" text-anchor="end">&lt; 1 week in CBP custody</text></g><g><rect x="843" y="268.3333333333334" height="126.66666666666652" width="5" fill="#000"></rect><text x="837" y="331.6666666666667" dy="0.35em" text-anchor="end">&gt; 1 week in CBP custody</text></g><g><rect x="421.5" y="4.999999999999943" height="253.33333333333337" width="5" fill="#000"></rect><text x="415.5" y="131.66666666666663" dy="0.35em" text-anchor="end">awaiting transfer to HHS</text></g><g><rect x="421.5" y="268.3333333333333" height="126.66666666666673" width="5" fill="#000"></rect><text x="415.5" y="331.6666666666667" dy="0.35em" text-anchor="end">transferred to HHS</text></g></g></g></svg>